HIERARCHY
ROOT Hips
{
  OFFSET 26.2117 90.3581 -118.275
  CHANNELS 6 Xposition Yposition Zposition Zrotation Xrotation Yrotation
  JOINT RightUpLeg
  {
    OFFSET -8.9458 -8.66707 0.101652
    CHANNELS 3 Zrotation Xrotation Yrotation
    JOINT RightLeg
    {
      OFFSET 0 -44.4227 1.3727
      CHANNELS 3 Zrotation Xrotation Yrotation
      JOINT RightFoot
      {
        OFFSET 0.253549 -42.0924 -1.46059
        CHANNELS 3 Zrotation Xrotation Yrotation
        JOINT RightToes
        {
          OFFSET 0.04 -4.41509 8.4991
          CHANNELS 3 Zrotation Xrotation Yrotation
          End Site
          {
            OFFSET -0.08 -0.137448 9.77979
          }
        }
      }
    }
  }
  JOINT Spine
  {
    OFFSET 0 11.8905 0
    CHANNELS 3 Zrotation Xrotation Yrotation
    JOINT Spine1
    {
      OFFSET 0 25.6574 0.127663
      CHANNELS 3 Zrotation Xrotation Yrotation
      JOINT HEad
      {
        OFFSET 0 8.73416 0.011341
        CHANNELS 3 Zrotation Xrotation Yrotation
        End Site
        {
          OFFSET -0.29 12.7742 2.51395
        }
      }
      JOINT LeftShoulder1
      {
        OFFSET 8.99 -0.362252 -0.22
        CHANNELS 3 Zrotation Xrotation Yrotation
        JOINT LeftArm
        {
          OFFSET 10.2827 -0.00338 0.322123
          CHANNELS 3 Zrotation Xrotation Yrotation
          JOINT LeftForeArm
          {
            OFFSET 32.7669 0.099144 -1.42434
            CHANNELS 3 Zrotation Xrotation Yrotation
            JOINT LeftHand
            {
              OFFSET 27.5643 0.085362 1.02216
              CHANNELS 3 Zrotation Xrotation Yrotation
              End Site
              {
                OFFSET 16.7443 -0.6 1.50291
              }
            }
          }
        }
      }
      JOINT RightShoulder
      {
        OFFSET -8.99 -0.362252 -0.22
        CHANNELS 3 Zrotation Xrotation Yrotation
        JOINT RightArm
        {
          OFFSET -10.2827 -0.00338 0.322123
          CHANNELS 3 Zrotation Xrotation Yrotation
          JOINT RightForeArm
          {
            OFFSET -32.8971 0.099144 -1.42434
            CHANNELS 3 Zrotation Xrotation Yrotation
            JOINT RightHand
            {
              OFFSET -27.4921 0.085362 1.02216
              CHANNELS 3 Zrotation Xrotation Yrotation
              End Site
              {
                OFFSET -16.6312 -0.6 1.50291
              }
            }
          }
        }
      }
    }
  }
  JOINT LeftUpLeg
  {
    OFFSET 8.9458 -8.66707 0.101652
    CHANNELS 3 Zrotation Xrotation Yrotation
    JOINT LeftLeg
    {
      OFFSET 0 -44.4227 1.3727
      CHANNELS 3 Zrotation Xrotation Yrotation
      JOINT LeftFoot
      {
        OFFSET -0.253549 -42.0924 -1.46059
        CHANNELS 3 Zrotation Xrotation Yrotation
        JOINT LeftToes
        {
          OFFSET -0.04 -4.41509 8.4991
          CHANNELS 3 Zrotation Xrotation Yrotation
          End Site
          {
            OFFSET 0.08 -0.047448 9.77979
          }
        }
      }
    }
  }
}
MOTION
Frames:	22
Frame Time:	0.0166667
60.6694 86.5452 -93.1386 -14.958 -5.98419 -64.3689 -17.6864 -11.688 9.29949 -2.98789 32.6585 14.3951 28.6049 21.8558 -7.45624 -40.0563 -41.0361 15.9396 -0.537689 13.7307 6.02875 1.69344 27.904 11.4516 -4.31448 -15.0092 31.5142 -1.23589e-030 -1.11319e-014 -6.36111e-015 19.9903 -67.9556 32.0207 -17.645 43.927 -101.78 -1.02401 10.3322 -24.0924 22.2489 5.34992 19.4884 49.4436 -44.8946 55.5157 23.8739 61.9844 124.311 -6.30969 11.5461 -37.7149 30.4164 -13.9483 -13.9357 -7.31199 47.9339 13.1344 -15.1306 26.0168 4.28739 -13.9661 -31.9923 -21.0168 
62.4772 86.7335 -90.7063 -14.5047 -3.64011 -67.1632 -17.0101 -13.0356 9.65943 -4.122 28.6986 17.34 31.3309 21.8995 -8.21223 -34.4709 -36.415 20.7215 0.141204 12.9005 5.06407 2.66446 26.3362 9.67459 -4.8292 -14.146 35.3704 3.18055e-015 -7.15625e-015 -0 31.2414 -70.1528 42.5531 -17.5191 45.3401 -101.638 3.03999 9.38284 -21.0457 25.2746 5.80283 18.9455 39.8316 -40.4938 47.407 18.7125 57.7971 130.343 -6.14643 11.5296 -38.339 30.5203 -10.7516 -16.561 -4.18779 43.606 13.742 -12.8619 22.8721 3.2743 -14.1603 -34.5399 -17.0435 
64.4133 86.6754 -88.5095 -13.9935 -1.40006 -69.2416 -16.1418 -14.3892 10.0263 -4.91482 25.3871 19.0555 32.6485 21.2977 -8.40349 -28.5083 -30.0043 24.7678 1.26283 12.19 3.53855 3.91824 24.9396 6.84714 -5.5168 -13.3355 39.7905 7.95139e-016 1.59028e-015 3.18055e-015 42.2147 -73.3912 50.9224 -18.6388 45.8099 -94.7498 6.515 8.77759 -17.8273 27.3169 6.07139 18.4984 34.3256 -36.7578 44.3772 16.2589 54.7274 132.35 -6.33884 11.5741 -38.0863 30.8076 -8.29712 -18.9004 -1.64701 39.9671 13.1779 -12.6469 19.3904 2.85049 -14.3137 -37.6452 -12.7183 
66.5273 86.4632 -86.8018 -13.6692 0.594915 -70.6491 -15.05 -15.634 10.283 -5.39031 22.9703 19.8153 32.5169 20.3547 -8.0997 -22.9673 -22.7012 28.0374 2.27273 11.7218 1.6684 5.25426 23.9866 3.22316 -5.76314 -13.0584 44.358 -7.95139e-016 0 -0 49.8486 -77.1152 54.2606 -19.2341 44.4162 -82.3381 8.31012 8.59816 -15.3332 27.9986 6.13068 18.2594 32.7078 -34.6509 45.8381 15.6772 53.2849 131.428 -6.78353 11.6547 -37.1662 31.5455 -6.91664 -20.5351 -0.32132 37.532 12.2963 -13.5353 16.0438 2.6857 -14.5699 -40.4795 -9.73488 
68.8283 86.2193 -85.7203 -13.7689 2.22768 -71.344 -13.7455 -16.5561 10.215 -5.55299 21.7432 20.2441 31.1276 18.8948 -7.34139 -18.4521 -15.6927 30.6519 2.81089 11.6027 -0.341221 6.47678 23.7146 -0.879133 -4.77349 -13.5674 48.5501 7.95139e-016 -6.16232e-015 -0 23.888 -76.0022 22.5255 -14.8412 34.2359 -68.5702 7.43049 8.8813 -13.1115 27.4481 6.04455 18.3239 34.3154 -34.3257 50.5355 15.9881 53.29 129.115 -7.32887 11.753 -36.191 32.8559 -6.69516 -21.1371 -0.46043 36.1782 11.7229 -14.3182 13.6822 2.56838 -15.1693 -42.4056 -9.13523 
71.2915 85.9986 -85.1812 -14.3904 3.45155 -71.2492 -12.3464 -17.061 9.59915 -5.39924 22.1157 20.9077 28.8994 16.4747 -6.18999 -15.3217 -10.1823 32.4827 2.96697 11.8797 -2.31396 7.49091 24.1957 -5.07766 -2.20445 -14.6883 51.8194 -5.51738e-032 9.93923e-016 3.18055e-015 2.93779 -52.7371 -6.26126 -3.9981 4.84791 -52.3168 2.38902 9.68357 -10.4535 26.1646 5.87192 18.5778 38.0677 -35.344 56.8315 16.3937 54.207 126.942 -7.86313 11.8712 -35.7109 34.5871 -7.53563 -20.4317 -1.56401 35.6349 11.1308 -14.4238 12.8135 2.48438 -16.2444 -43.5307 -10.7426 
73.8334 85.8011 -84.9272 -15.4051 4.28312 -70.4132 -11.1179 -17.2375 8.41885 -4.79556 24.322 21.5616 26.3638 13.1404 -4.87666 -13.6922 -7.1166 33.3111 3.07307 12.4869 -4.09608 8.30216 25.2653 -8.97341 1.45655 -16.0443 53.7317 8.82781e-032 3.18055e-015 -1.59028e-015 6.60044 -31.4689 -13.0285 5.20355 -14.5836 -28.9951 -3.15385 10.2924 -7.53886 24.6503 5.61873 18.718 42.5575 -36.9601 63.016 16.477 55.4012 126.025 -8.30624 12.0117 -35.9705 36.2243 -9.18234 -18.2862 -2.38643 35.8111 9.52015 -14.1044 13.1771 2.46922 -17.5892 -44.106 -13.5709 
76.308 85.6603 -84.6798 -16.5 4.78503 -69.1861 -10.3502 -17.2362 7.05673 -3.38901 28.0699 20.893 23.8981 9.78921 -3.73078 -13.582 -6.93978 33.2484 3.31618 13.2352 -5.52015 8.92619 26.5725 -12.1341 5.07417 -17.3588 54.0813 3.18055e-015 4.72114e-016 -0 12.7163 -19.9448 -16.8118 8.63945 -19.7545 -9.83024 -7.89055 10.5585 -4.61051 23.2182 5.28993 18.5127 46.2994 -38.5167 67.5819 16.1621 56.3195 126.791 -8.54077 12.142 -36.8695 37.1156 -11.2007 -15.1478 -1.807 36.5809 6.46518 -13.8935 14.1386 2.54106 -18.8005 -44.2822 -16.431 
78.5721 85.6614 -84.2716 -17.3006 5.06139 -68.2211 -10.144 -17.216 6.0988 -0.833474 32.6446 17.4769 21.5968 7.44615 -2.94186 -14.871 -9.38112 32.5833 3.54932 13.8852 -6.37432 9.26093 27.7189 -14.0725 7.47478 -18.4922 52.9232 -7.95139e-016 1.30452e-016 2.98177e-016 15.8562 -15.8517 -19.5626 8.07048 -19.5392 -0.797462 -10.5914 10.5356 -2.24367 22.0656 4.96234 18.0718 47.988 -39.698 69.3993 15.417 56.5769 129.147 -8.39837 12.1905 -38.1213 36.9743 -13.0573 -12.3217 -0.133732 37.5159 3.2657 -13.9597 15.1505 2.67077 -19.5212 -44.2018 -18.3395 
80.5626 85.8633 -83.6725 -17.5372 5.21729 -68.2415 -10.3545 -17.3463 5.86559 2.72477 37.3565 11.0932 19.3936 6.40151 -2.47377 -17.1155 -13.3979 31.5064 3.47249 14.2708 -6.45735 9.05918 28.4349 -14.35 8.04691 -19.2352 50.5149 2.38542e-015 2.68359e-015 5.96354e-016 14.0599 -15.8745 -21.6122 7.93997 -19.257 -1.3954 -9.52724 10.2817 -0.0574474 21.4122 4.77749 17.8055 46.9144 -40.4887 68.0075 14.2861 56.1135 132.58 -7.78078 12.0918 -39.4159 36.0779 -14.327 -11.0894 1.0197 38.318 2.10401 -14.1217 15.8572 2.78609 -19.5127 -43.9105 -18.7073 
82.3135 86.2446 -82.9262 -17.2046 5.27491 -69.7122 -10.7331 -17.6706 6.19631 6.42297 41.8627 3.08402 17.2936 6.41998 -2.21332 -19.77 -17.8177 30.3115 2.97271 14.3826 -5.69845 8.09362 28.7081 -12.785 6.99439 -19.2415 47.2654 7.95139e-016 -2.48481e-017 9.93923e-017 7.41158 -19.2665 -23.0608 7.71956 -18.96 -10.0619 -5.49326 10.133 -0.122472 21.4509 4.82461 17.9715 43.4086 -40.9068 63.8777 13.1575 55.3246 136.174 -6.76334 11.8351 -40.456 34.9647 -14.8424 -11.4722 0.395678 39.0691 3.93015 -14.2365 16.1564 2.84524 -18.7626 -43.3173 -17.6005 
83.9046 86.7366 -82.0901 -16.5782 5.16184 -72.5834 -11.1109 -17.944 6.64778 9.10089 46.12 -4.48473 15.3969 7.44038 -2.10647 -22.683 -22.3104 29.2342 2.23016 14.3414 -4.23487 6.38015 28.7335 -9.62197 5.14681 -18.3077 43.71 -7.95139e-016 -2.44132e-015 6.4605e-016 -2.36791 -25.3936 -24.0559 4.58026 -16.2492 -23.9189 -1.49152 10.0515 -3.84677 22.1074 5.04301 18.366 38.7272 -40.8925 58.1562 12.5744 54.8203 139.049 -5.53706 11.4682 -41.0249 34.0537 -14.6309 -12.2495 -1.91275 39.7479 7.79108 -14.3147 16.3642 2.88635 -17.7034 -42.4467 -15.9902 
85.3909 87.2733 -81.2194 -16.0302 4.80733 -76.2485 -11.5599 -17.699 6.8648 10.189 50.0903 -10.1293 13.77 9.3873 -2.10975 -25.9178 -26.9352 28.0397 1.5099 14.2966 -2.38392 4.2195 28.7302 -5.51998 3.40619 -16.665 40.3643 -7.95139e-016 -2.98177e-016 7.95139e-016 -13.2255 -32.6284 -24.9746 -0.528917 -8.67227 -38.625 0.928139 9.87545 -7.38749 23.0548 5.28344 18.6082 34.1573 -40.3046 51.8984 12.705 54.7988 140.864 -4.30974 11.0721 -41.1352 33.4496 -13.8243 -12.1159 -4.7832 40.1301 11.8078 -14.4203 17.0019 2.98519 -16.96 -41.5796 -15.1326 
86.7737 87.8035 -80.3614 -15.7967 4.2274 -79.8197 -12.3865 -16.5276 6.84797 10.4588 53.6053 -13.834 12.4382 11.4586 -2.12024 -28.9243 -30.8533 26.5685 0.984432 14.3333 -0.52992 2.03542 28.8141 -1.3194 2.22679 -14.8613 37.4991 -1.59028e-015 -6.55989e-015 -7.95139e-016 -24.8617 -41.3156 -26.3853 -4.82847 4.92382 -51.6336 3.32337 9.63552 -7.30174 24.1083 5.45939 18.5129 30.2077 -38.7034 45.617 13.0784 54.6435 141.934 -3.29759 10.7394 -41.0647 32.9979 -12.6828 -10.7046 -7.07443 40.1396 14.5421 -14.5923 18.2359 3.17265 -16.7838 -40.938 -15.5116 
88.0255 88.2809 -79.5551 -15.8916 3.5041 -82.5847 -13.8465 -14.285 6.9067 11.7309 56.4719 -16.84 11.3741 12.4532 -2.03355 -30.5782 -32.7704 25.2859 0.705359 14.4533 1.03471 0.160773 29.0008 2.32132 1.56551 -13.3498 35.0694 1.59028e-015 6.55989e-015 2.38542e-015 -38.5065 -52.6248 -29.0872 -7.73867 23.8115 -63.0186 6.86218 9.44519 -4.2017 25.4099 5.58784 18.0818 26.8299 -35.3504 39.6176 12.8306 53.2698 142.978 -2.75159 10.5625 -41.1386 32.5032 -11.5396 -8.59345 -8.41014 39.883 15.7053 -14.8185 19.6968 3.40529 -16.9377 -40.4405 -16.6391 
89.1415 88.6596 -78.8473 -16.2003 2.72321 -84.3194 -15.8735 -11.0669 7.37389 15.4019 58.4703 -20.4135 10.5354 11.8397 -1.83372 -30.3002 -32.2899 24.6686 0.599299 14.6186 2.2279 -1.28312 29.2604 5.17384 1.21554 -12.2473 32.8745 -1.98626e-031 -3.57812e-015 -3.18055e-015 -54.2106 -64.0205 -33.2574 -9.43355 42.7759 -73.3916 10.6479 9.4611 -0.765536 27.1265 5.6992 17.364 24.1692 -30.0084 34.422 11.5011 50.0337 144.329 -2.80511 10.583 -41.2915 31.9005 -10.6089 -6.65268 -9.13956 39.4523 15.8964 -15.0242 20.837 3.59858 -17.0233 -39.8917 -17.6728 
90.1756 88.902 -78.2909 -16.6012 1.95677 -85.2517 -18.1095 -7.1404 8.37803 21.1652 59.3649 -24.632 9.96953 10.0944 -1.59764 -28.6721 -30.1934 24.6232 0.52066 14.7936 3.15257 -2.34626 29.546 7.37788 1.07992 -11.428 30.7898 1.59028e-015 2.98177e-015 3.18055e-015 -58.7127 -61.6173 -27.5662 -6.64703 44.7153 -84.7462 12.6465 9.61208 1.55484 29.1146 5.78341 16.4727 22.6273 -23.9193 30.5236 9.68106 45.6509 145.364 -3.18107 10.7017 -41.0806 31.2634 -9.90882 -5.43656 -9.7731 38.8681 15.8733 -15.1284 21.3708 3.69264 -16.8265 -39.2216 -18.0951 
91.2274 89.0053 -77.9145 -17.0204 1.29617 -85.7571 -20.1023 -2.86034 9.77272 27.218 59.1427 -28.2925 9.79226 8.22308 -1.42347 -26.8938 -27.8913 24.761 0.444613 14.9534 3.93382 -3.10622 29.8059 9.18325 1.17393 -10.7518 28.8432 1.59028e-015 3.97569e-016 1.59028e-015 -61.5438 -56.1238 -21.219 -5.59339 43.0717 -92.2346 14.3395 9.55709 1.43306 30.9822 5.82968 15.6194 22.288 -19.0923 28.0033 8.3396 41.8666 145.466 -3.35579 10.7429 -40.4441 30.7293 -9.36685 -4.99511 -10.5308 38.1034 16.0287 -15.1021 21.4315 3.69362 -16.4182 -38.5319 -17.9286 
92.3954 88.9884 -77.7236 -17.4293 0.78873 -86.0935 -21.5312 1.43163 11.242 31.7866 58.1605 -30.1131 10.1126 7.14533 -1.38056 -26.0134 -26.7276 24.7817 0.442173 15.0859 4.61756 -3.62052 30.0235 10.738 1.48286 -10.1978 27.1264 -1.59028e-015 -1.98785e-015 -0 -64.6053 -50.5896 -17.1313 -6.95523 41.6944 -95.5299 15.8705 9.26413 -0.504941 32.3507 5.86014 15.0346 22.8558 -16.5209 26.7702 7.88132 39.8397 144.737 -3.12607 10.6557 -39.8466 30.3504 -8.94776 -5.06979 -11.297 37.1578 16.3278 -14.9508 21.3177 3.64049 -15.9452 -37.949 -17.3854 
93.7476 88.8771 -77.7222 -17.8271 0.398657 -86.3539 -22.2683 5.5075 12.4749 34.0677 56.8314 -29.619 11.0465 7.36263 -1.52116 -26.5775 -27.4474 24.5309 0.591769 15.2011 5.16365 -3.93014 30.241 12.0355 1.85519 -9.82576 25.7257 2.20695e-032 3.97569e-016 -3.18055e-015 -67.1803 -46.0659 -15.5212 -9.51956 41.2425 -96.1394 17.1136 8.86743 -2.91827 32.9483 5.91491 14.9101 24.0909 -16.0409 26.8916 8.17527 39.6686 143.444 -2.74282 10.5322 -39.7005 30.0289 -8.66351 -5.36081 -11.7892 36.0931 16.496 -14.6684 21.1157 3.54344 -15.3321 -37.3713 -16.3635 
95.3219 88.6989 -77.9309 -18.203 0.0481585 -86.6066 -22.3091 9.20907 13.3007 34.014 55.3454 -27.0474 12.6868 8.77455 -1.88383 -28.6104 -29.9966 23.8895 0.887433 15.3211 5.52632 -4.07681 30.5194 13.0099 2.01481 -9.65908 24.7187 1.59028e-015 -3.97569e-016 -0 -68.7452 -42.9862 -16.1475 -12.0593 41.4319 -95.7363 18.0503 8.51611 -4.84423 32.5702 6.02263 15.3993 26.0763 -17.3484 28.5826 9.05387 41.2004 141.542 -2.52884 10.472 -40.1083 29.5927 -8.50576 -5.65066 -11.7301 34.9709 16.2957 -14.2603 20.7029 3.39067 -14.3154 -36.4596 -14.4752 
97.1405 88.488 -78.3852 -18.4808 -0.299054 -87.0029 -21.6821 12.328 13.7251 31.9734 53.6707 -23.0961 14.8059 10.6181 -2.4158 -31.844 -33.7575 22.5312 1.2235 15.4566 5.73161 -4.09602 30.8679 13.6533 1.67608 -9.66898 24.1558 -0 -1.59028e-015 -0 -69.3301 -41.6651 -18.5638 -13.6471 41.9141 -95.7365 18.6876 8.30965 -5.82716 31.0831 6.16398 16.5732 29.2233 -20.2439 32.0751 10.5388 44.3284 138.698 -2.62627 10.5175 -40.9201 28.9457 -8.42985 -5.85025 -10.9839 33.713 15.8153 -13.799 20.1488 3.21166 -12.8078 -34.9424 -11.6097 
